<svg xmlns="http://www.w3.org/2000/svg" viewBox="0 0 398.92 235.51"><defs><style>.cls-1{fill:#e92c55;}.cls-2{fill:#fff;}</style></defs><g id="graphics"><path class="cls-1" d="M227.46,38.67a64.76,64.76,0,0,0-6.23,13.13,82.4,82.4,0,0,0-3.3,12.32c9.68-6,27.86-19.47,32.41-38.1,1.72-7.09.74-13.25-2.84-17.81C243.4,3,236,0,227.28,0a42.24,42.24,0,0,0-31.07,13.83l-.9,1-.91-1A42.24,42.24,0,0,0,163.34,0a35.57,35.57,0,0,0-6.09.52,32.49,32.49,0,0,1,8.91,3.9,53,53,0,0,1,15.46,15.13,73.94,73.94,0,0,1,13.69,15.68c13-19.27,24.52-23.37,32-23.37,1.76,0,5,.26,6.79,2s2.37,5.49,1.28,9.93a37.11,37.11,0,0,1-7.11,13.86Z"/><path class="cls-1" d="M151,5.66c-8.68,0-16.28,6.79-19.83,17.72a42.26,42.26,0,0,0,3.55,33.82l.68,1.17-1.24.55A42.22,42.22,0,0,0,111.4,84.19a35.27,35.27,0,0,0-1.39,6,33,33,0,0,1,6.46-7.27,53,53,0,0,1,19.16-10,73.94,73.94,0,0,1,19.15-8.18C140.48,46.35,140.13,34.13,142.43,27c.55-1.67,1.8-4.65,4-5.82s6-.53,9.85,1.85a37,37,0,0,1,11,11c.23.34.46.68.69,1a65.17,65.17,0,0,0,10.56,10,83.76,83.76,0,0,0,10.7,6.94C186.53,41,179.35,19.57,163,9.49A23,23,0,0,0,151,5.66Z"/><path class="cls-1" d="M158.28,128.81l.13,1.35a42.25,42.25,0,0,0,17,29.44,35.15,35.15,0,0,0,5.23,3.16,32.38,32.38,0,0,1-4.92-8.39,52.78,52.78,0,0,1-3.61-21.32,73.85,73.85,0,0,1-1.86-20.74c-17.29,6.28-31.16,6.25-39.6.12-1.42-1-3.88-3.14-4.29-5.64s1.31-5.84,4.8-8.8a37.26,37.26,0,0,1,13.9-7l1.2-.33a65.17,65.17,0,0,0,12.76-7,83.25,83.25,0,0,0,9.91-8c-2.57-.19-5.16-.29-7.72-.29-10,0-28.52,1.57-40.89,12.07-5.57,4.72-8.39,10.28-8.18,16.07.25,6.63,4.46,13.39,11.54,18.53a43,43,0,0,0,24.79,8h0a39.8,39.8,0,0,0,8.47-.9Z"/><path class="cls-1" d="M185.07,102.24c-4.31,10.55-11.1,32.12-3.82,49.87,4.54,11.08,12.14,13.41,17.71,13.41h0c5.22,0,11-2.1,16.23-5.92a42.22,42.22,0,0,0,17-29.44l.14-1.35,1.32.28a39.94,39.94,0,0,0,8.47.9,43,43,0,0,0,24.79-8,34.48,34.48,0,0,0,4.62-4,32.49,32.49,0,0,1-9.5,2.09A53,53,0,0,1,240.65,117a73.91,73.91,0,0,1-20.3-4.63c.8,23.23-6.1,33.31-12.12,37.69-1.24.9-3.65,2.4-6,2.4a4.32,4.32,0,0,1-.73-.06c-2.64-.39-5.15-3-6.89-7.28a37.15,37.15,0,0,1-2.39-15.4l.06-1.24a65.09,65.09,0,0,0-2.68-14.29A83.32,83.32,0,0,0,185.07,102.24Z"/><path class="cls-1" d="M215.35,95.12c8.14,6.87,25.23,19.15,43.39,19.15,1,0,1.92,0,2.85-.11,7.28-.54,12.84-3.38,16.07-8.2,3.69-5.51,4.26-13.44,1.56-21.77a42.23,42.23,0,0,0-22.76-25.27l-1.24-.55.68-1.17a42.22,42.22,0,0,0,3.56-33.82,35.39,35.39,0,0,0-2.38-5.62,32.49,32.49,0,0,1-.95,9.67,53.09,53.09,0,0,1-9.61,19.38,73.94,73.94,0,0,1-10.69,17.86c22.35,6.42,29.81,16.1,32.11,23.19.54,1.67,1.29,4.82.16,7.08s-4.49,4-9.06,4.3a37.26,37.26,0,0,1-15.38-2.49l-1.16-.44a65.44,65.44,0,0,0-14.42-1.86A82.64,82.64,0,0,0,215.35,95.12Z"/><path class="cls-2" d="M0,187.28H38v11.14H13v7.16h22.7v10.34H13v7.5h25.4v11.14H0Z"/><path class="cls-2" d="M45.06,187.28H58.91l11.28,18.3,11.28-18.3H95.32v47.28h-13V207.41L70.19,225.92h-.27l-12-18.38v27H45.06Z"/><path class="cls-2" d="M103.7,187.28H124c12,0,19.66,6.14,19.66,16.61V204c0,11.15-8.58,17-20.33,17H116.8v13.51H103.7ZM123,210.79c4.66,0,7.5-2.44,7.5-6.15v-.14c0-4.05-2.84-6.21-7.57-6.21H116.8v12.5Z"/><path class="cls-2" d="M147.54,211.05v-.13c0-13.58,11-24.59,25.54-24.59s25.4,10.88,25.4,24.46v.13c0,13.58-10.95,24.59-25.54,24.59S147.54,224.63,147.54,211.05Zm37.56,0v-.13c0-6.82-4.93-12.77-12.16-12.77S161,204,161,210.79v.13c0,6.82,4.93,12.77,12.09,12.77S185.1,217.88,185.1,211.05Z"/><path class="cls-2" d="M205.31,187.28h18.23c16.89,0,26.69,9.72,26.69,23.37v.14c0,13.64-9.93,23.77-27,23.77h-18Zm18.44,35.66c7.83,0,13-4.32,13-11.95v-.14c0-7.56-5.2-11.95-13-11.95h-5.34v24Z"/><path class="cls-2" d="M257,187.28h38v11.14H270v7.16h22.69v10.34H270v7.5h25.39v11.14H257Z"/><path class="cls-2" d="M302.05,187.28h22.36c7.22,0,12.22,1.89,15.4,5.13,2.77,2.7,4.19,6.35,4.19,11v.14c0,7.23-3.85,12-9.73,14.52l11.28,16.48H330.42l-9.53-14.32h-5.74v14.32h-13.1ZM323.8,210c4.46,0,7-2.16,7-5.6v-.14c0-3.71-2.7-5.6-7.09-5.6h-8.58V210Z"/><path class="cls-2" d="M366.16,186.94h12.63l20.13,47.62H384.87l-3.45-8.44H363.18l-3.37,8.44H346Zm11.48,29-5.27-13.44L367,215.92Z"/></g></svg>